<?xml version="1.0" encoding="UTF-8"?>
<svg id="Layer_2" data-name="Layer 2" xmlns="http://www.w3.org/2000/svg" width="512" height="290" viewBox="0 0 512 290">
  <g>
    <path d="M118.79,225.27c-2.73-1.68-5.8-2.52-9.21-2.52-2.65,0-5.04,.56-7.18,1.68-1.24,.65-2.73,2.37-2.73,2.37v-3.19h-11v52h10v-18.41c1.34,.94,2.45,1.74,3.73,2.38,2.14,1.07,4.53,1.61,7.18,1.61,3.41,0,6.47-.84,9.17-2.52,2.7-1.68,4.83-3.97,6.38-6.88,1.55-2.9,2.33-6.16,2.33-9.78s-.76-6.95-2.29-9.86c-1.53-2.9-3.66-5.2-6.38-6.88Zm-2.83,21.82c-.79,1.5-1.87,2.69-3.25,3.55-1.38,.87-2.98,1.3-4.81,1.3s-3.48-.43-4.93-1.3c-1.45-.87-2.55-2.05-3.29-3.55-.74-1.5-1.11-3.22-1.11-5.16s.39-3.64,1.18-5.12c.79-1.48,1.88-2.65,3.29-3.51,1.4-.87,2.99-1.3,4.78-1.3,1.88,0,3.52,.43,4.89,1.3s2.46,2.04,3.25,3.51c.79,1.48,1.18,3.18,1.18,5.12s-.4,3.66-1.18,5.16Z" fill="#87585c"/>
    <path d="M178.67,227.13c-1.02-1.07-2.19-1.97-3.56-2.68-2.07-1.07-4.39-1.61-6.97-1.61-3.38,0-6.4,.84-9.05,2.53-2.65,1.69-4.73,3.98-6.25,6.89-1.52,2.91-2.27,6.2-2.27,9.88s.76,6.89,2.27,9.81c1.52,2.91,3.6,5.21,6.25,6.89,2.65,1.69,5.64,2.53,8.98,2.53,2.63,0,4.99-.54,7.08-1.61,1.36-.7,2.52-1.59,3.52-2.64v3.49h10v-37h-10v3.52Zm-1.77,21.98c-1.73,1.88-4,2.83-6.8,2.83-1.78,0-3.39-.43-4.81-1.3-1.43-.87-2.53-2.04-3.32-3.52-.79-1.48-1.18-3.21-1.18-5.2s.39-3.64,1.18-5.12c.79-1.48,1.88-2.65,3.29-3.51,1.4-.87,3.02-1.3,4.85-1.3s3.52,.42,4.89,1.26c1.38,.84,2.47,2.02,3.29,3.55,.81,1.53,1.22,3.26,1.22,5.2,0,2.85-.87,5.22-2.6,7.11Z" fill="#87585c"/>
    <polygon points="212.67 208.61 203.67 208.61 203.67 223.61 194.67 223.61 194.67 232.61 203.67 232.61 203.67 260.61 212.67 260.61 212.67 232.61 221.67 232.61 221.67 223.61 212.67 223.61 212.67 208.61" fill="#87585c"/>
    <path d="M252.67,227.13c-1.02-1.07-2.19-1.97-3.56-2.68-2.07-1.07-4.39-1.61-6.97-1.61-3.38,0-6.4,.84-9.05,2.53-2.65,1.69-4.74,3.98-6.25,6.89-1.52,2.91-2.27,6.2-2.27,9.88s.76,6.89,2.27,9.81c1.52,2.91,3.6,5.21,6.25,6.89,2.65,1.69,5.64,2.53,8.98,2.53,2.63,0,4.99-.54,7.08-1.61,1.36-.7,2.52-1.59,3.52-2.64v3.49h10v-37h-10v3.52Zm-2.1,21.98c-1.73,1.88-4,2.83-6.8,2.83-1.78,0-3.39-.43-4.81-1.3-1.43-.87-2.53-2.04-3.32-3.52-.79-1.48-1.18-3.21-1.18-5.2s.39-3.64,1.18-5.12c.79-1.48,1.88-2.65,3.29-3.51,1.4-.87,3.02-1.3,4.85-1.3s3.52,.42,4.89,1.26c1.38,.84,2.47,2.02,3.29,3.55,.81,1.53,1.22,3.26,1.22,5.2,0,2.85-.87,5.22-2.6,7.11Z" fill="#87585c"/>
    <path d="M301.04,225.27c-2.73-1.68-5.8-2.52-9.21-2.52-2.65,0-5.04,.56-7.18,1.68-1.24,.65-2.98,2.37-2.98,2.37v-3.19h-10v52h9v-18.41c1.6,.94,2.7,1.74,3.98,2.38,2.14,1.07,4.53,1.61,7.18,1.61,3.41,0,6.47-.84,9.17-2.52,2.7-1.68,4.83-3.97,6.38-6.88,1.55-2.9,2.33-6.16,2.33-9.78s-.76-6.95-2.29-9.86c-1.53-2.9-3.66-5.2-6.38-6.88Zm-2.83,21.82c-.79,1.5-1.87,2.69-3.25,3.55-1.38,.87-2.98,1.3-4.81,1.3s-3.48-.43-4.93-1.3c-1.45-.87-2.55-2.05-3.29-3.55-.74-1.5-1.11-3.22-1.11-5.16s.39-3.64,1.18-5.12c.79-1.48,1.88-2.65,3.29-3.51s2.99-1.3,4.78-1.3c1.88,0,3.52,.43,4.89,1.3,1.38,.87,2.46,2.04,3.25,3.51,.79,1.48,1.18,3.18,1.18,5.12s-.4,3.66-1.18,5.16Z" fill="#87585c"/>
    <path d="M321.25,217.55c1.68,0,3.04-.55,4.09-1.64,1.04-1.1,1.57-2.46,1.57-4.09s-.52-2.93-1.57-4.05c-1.04-1.12-2.41-1.68-4.09-1.68s-2.98,.56-4.05,1.68c-1.07,1.12-1.6,2.47-1.6,4.05s.53,2.99,1.6,4.09c1.07,1.1,2.42,1.64,4.05,1.64Z" fill="#87585c"/>
    <rect x="316.67" y="223.61" width="10" height="37" fill="#87585c"/>
    <path d="M139.38,209.8c-2.17,0-4.15-.77-5.71-2.05v52.86h10v-51.9c-1.28,.7-2.74,1.09-4.29,1.09Z" fill="#87585c"/>
  </g>
  <g>
    <path d="M155.67,25.98c76.03-35.18,155.94,14.2,184.17,88.17,2.99,8.35,10.95,20.57,19.83,23.45,40,13,74-3,107,5,128.46,31.14-98.43,169.34-138.93,20.29-2.75-6.53-6.83-10.15-13.75-6.41-5.92,3.2-15.16-1.42-18.35,7.89-2.95,7.41-2.39,15.34,.78,22.57,1.59,3.56,2.4,7.02-.38,10.27-10.3,8.88-25.99-3.86-36.69,9.31-2.44,2.44-5.83,4.43-9.55,2.31-7.34-6.05,2.83-13.37-11.13-17.23-4.14-2.14-10.48-2.68-10.26-8.75,.36-6.65,7.69-4.12,11.67-6.24,6.07-1.94,12.92-4.5,12.83-11.36-.03-2.45-8.28-.5-12.76-.68-15.04-.09-30.12,.24-45.15-.85-34.66-5.08,11.32,41.04-27.84,32.87-7.67-1.09-14.79-.25-20.92,5.31-5.94,6.67-15.52,2.24-12.68-6.93,.36-10.71-18.88-7.49-17.91-18.24,4.41-7.7,19.71-2.22,24.86-13.32,2.23-3.68,1.77-7.25-3.03-8.81-12.68-3.09-36.95-14.88-41.27,4.48-15.76,107.69-148.99,49.53-58.72-19.42,8.99-5.88,11.69-12.67,11.66-23.69-.09-32.75,20.09-52.4,52.8-53.56,3.99-.14,6.69-1.28,9.42-4.13,12.83-13.38,27.65-24.13,44.3-32.31Z" fill="#87585c"/>
    <path d="M296.04,124.37c10.76,14.95,2.37,28.62,8.05,26.25,34.1-12.75,29.99,18.17,44.7,39.9,56.89,84.09,218.89-22.91,111.89-40.91-46.63-7.84-109.09,24.37-130.25-36.82C296.93,24.78,187.06-9.81,120.43,60.14c-4.14,3.72-6.31,10.28-13.57,10.11-33.09-2.54-59.86,27.05-47.5,57.02,15.12-.2,27.42,4.81,37.59,16.08,12.5-8.45,35.02,5.43,33.27-3.08,0-2.57,3.24-3.74,5.39-2.01,19.42,13.43,17.82,35.48-5.82,41.41,6.26,3.26,11.97,6.8,11.88,14.89,12.55-8.17,20.87-5.9,34.65-5.21-12.05-29.89,15.52-39.67,3.53-60.37-2.67-6.2-6.64-12.01-7.28-18.86,3.47-4.29,5.98-2.79,8.07,1.33,6.32,13.18,15.84,28.09,6.76,42.34-1.01,1.84,.37,1.58,1.34,1.6,19.96,.07,40.01,1.9,59.93,.68-30.36-33.37,46.04,4.23-6.11,28.38,6.32,3.1,12.35,6.37,12.44,14.59,16.58-13.31,34.85-2.77,34.4-7.81-6.29-14.36-2.84-27.36,3.38-40.87,6.13-13.32-5.63-22.59-9.92-33.53-1.53-3.48,.98-6.63,4.71-6.12,4.39,2.99,5.5,9.3,8.45,13.65Z" fill="#fff"/>
    <path d="M58.38,135c-20.83,10.56-62.08,45.91-36.23,67.16,31.64,29.14,62.9-14.72,66.84-45.6,3.69-17.76-15.83-20.38-30.62-21.57Z" fill="#fff"/>
    <path d="M92.94,126.47c-9.28,.22-9.58-14.51-.23-14.2,9.45-.72,9.59,14.26,.23,14.2Z" fill="#87585c"/>
  </g>
</svg>